/* XPM */
static char *result[] = {
/* columns rows colors chars-per-pixel */
"32 32 8 1 ",
"  c #252B43",
". c #3A4467",
"X c #BF4830",
"o c #FDAE35",
"O c #5B6986",
"+ c #8B9BB5",
"@ c #ECF0F1",
"# c None",
/* pixels */
"################################",
"################################",
"################################",
"################################",
"################################",
"################################",
"################################",
"################################",
"################################",
"################################",
"################################",
"################################",
"###########ooooooooooXXXX#######",
"###########++OOO+++++OOXX#######",
"###########++OOO+++++OOXX#######",
"###########++OOOOOOOOOOXX#######",
"##########oooooooXXXXXXXXX######",
"#######oooo+o+o+ooooXXXXXX######",
"#######@@o.+.+.+.o@@OX XX ######",
"#######ooo.+.+.+.oooXX XX ######",
"######@@@@@@@@@@@@@@O  #  ######",
"########  #  ########  #  ######",
"########  #  ########  #  ######",
"################################",
"################################",
"################################",
"################################",
"################################",
"################################",
"################################",
"################################",
"################################"
};
