/* XPM */
static char *result[] = {
/* columns rows colors chars-per-pixel */
"32 32 4 1 ",
"  c #BF4830",
". c #FDAE35",
"X c #FFD943",
"o c None",
/* pixels */
"oooooooooooooooooooooooooooooooo",
"oooooooooooooooooooooooooooooooo",
"oooooooooooooooooooooooooooooooo",
"oooooooooooooo.......  ooooooooo",
"oooooooooooo.. ........  ooooooo",
"ooooooooooo. ...........  oooooo",
"oooooooooo. ..........XX.  ooooo",
"ooooooooo. ..........XXXX.  oooo",
"ooooooooo. ..... . .XXXX..  oooo",
"ooooooooo. ..... . XXXX...  oooo",
"oooooooo. ....       X.....  ooo",
"oooooooo. .....       .....  ooo",
"oooooooo. .....  XX   .....  ooo",
"oooooooo. .....  XX   .....  ooo",
"oooooooo. ....X      ......  ooo",
"oooooooo. ...XX      ......  ooo",
"oooooooo. ..XXX  ..   .....  ooo",
"oooooooo. .XXXX  ..   .....  ooo",
"oooooooo. .XXX.       .....  ooo",
"oooooooo. .XX.       ......  ooo",
"ooooooooo. ..... . .......  oooo",
"ooooooooo. ..... . .......  oooo",
"ooooooooo. ...............  oooo",
"oooooooooo. .............  ooooo",
"ooooooooooo. ...........  oooooo",
"oooooooooooo.. ........  ooooooo",
"oooooooooooooo.......  ooooooooo",
"oooooooooooooooooooooooooooooooo",
"oooooooooooooooooooooooooooooooo",
"oooooooooooooooooooooooooooooooo",
"oooooooooooooooooooooooooooooooo",
"oooooooooooooooooooooooooooooooo"
};
