/* XPM */
static char *result[] = {
/* columns rows colors chars-per-pixel */
"32 32 4 1 ",
"  c #8B9BB4",
". c #EAD4AA",
"X c #C0CBDC",
"o c #ECF0F1",
/* pixels */
"XooooooXXooooo ooooo ooXoXooo XX",
"ooo .oXoooooo XooooXo Xooooo XXo",
"oo .ooooooXooXoooo ooooXooooXooo",
"XXoooooo XooX XXoXooooXoooo oooo",
"oooooXoX.ooX oooXXooo.XooooooooX",
"oooXXoooooX oooooXooo.ooooXoooXo",
"ooX oooooX oooooXoooX oooXoooooo",
"ooXoooXoXoXooooXooo  oXXXoooo Xo",
"o XoXoooooXoooooXX XooXooXo  Xoo",
"XooXoXoooXooooX o.XooXoooo Xoooo",
"oooXooXXoooooXoooooooXooooXooooX",
"ooXoo.X XoXoXooooXooXooXoXXooXXo",
"ooooXXoo XooooooXooooXooXXoooooX",
"oooX.oooooXoooooXXXooXooooX.o.oo",
"oooXoooooX ooooX.ooXXoXooX.ooooX",
" XXooooo XoX oXoooooo oooXoooXXo",
"XooooooooooooXooooo XoooooXX ooo",
"ooXooo.XooXXooooX  ooXXoXX ooooo",
"oooXXo oXXooXoX  XoooooX oo Xooo",
"o.oooXoooooooX.X.ooooo  XooooXXX",
".oooX oooooXXooXoooo  oooXoooooo",
"ooo oooooo Xoo.XoooXooooooooooXo",
"oo XoooXooXoooXoooXooooo ooooXoo",
"oXXoooXooXooo.XoXooXXoo XooXXooo",
"ooooo XooooXXooXoooooXoXooXooooo",
"oooXXooXoXXooooooXooooX oooooooX",
"o XoooooXoooooooXooXoXoooXoooXXo",
"XoooooooooooX.ooXo ooXooXoooXooo",
"ooooooooXoo.oooXo XooX Xoooooooo",
"oooXoo XoooXoooXooooo oooo XXooo",
"XoXooXooXooXoo oooooXooooXoooooo",
"ooo XoooooXoo XooooXooooX oooXoo"
};
