/* XPM */
static char *result[] = {
/* columns rows colors chars-per-pixel */
"32 32 9 1 ",
"  c #252B43",
". c #3A4467",
"X c #BF4830",
"o c #F77622",
"O c #E43D44",
"+ c #FDAE35",
"@ c #5867AE",
"# c #0099DC",
"$ c None",
/* pixels */
"$$$$$$$$$$$$$$$$$$$$$$$$$$$ @ $ ",
"$$$$$$$$$$$$ $$$ $$$$$$$$$$  $$$",
"$$$$$$$$$$$  $$$  $$$$$$$$$  $$$",
"$$$$$$$$$$ . $$$ . $$$$$$$$   $$",
"$$$$$$$$$$ . ### . $$$$$$$$$   $",
"$$$$$$$$$ ..     .. $$$$$$$$$. $",
"$$$$$$$$$ ..     .. $$$$$$$$$  $",
"$$$$$$$$#           #$$$$$$$$ .$",
"$$$$$$$#             #$$$$$$$..$",
"$$$$$$##             ##$$$$$$. $",
"$$$$$###             ###$$$$$  $",
"$$$+####  O       O  ##++$$$$  $",
"$$++++o##  OO   OO  ##o+++$$$..$",
"$$++++o+##         ##+o+++$$o  o",
"$$++++o+++        #+++o++Xo+oXoo",
"$$XXXXo++++       ++++oXXo++oXXX",
"$$XXoooo++++     ++++oXXoo++oXoo",
"$$XXooooo+++     +++oXXXo++++XXX",
"$$XXXooo$ooo     ooo$$XXX++++..$",
"$$XXXoo$$+o+  .  +o+$$$XX++++  $",
"$$+++++$$oooo   oooo$$$$X+++$..$",
"$$$+++$$+++o+o+o+o+++$$$$$$$$. $",
"$$$+++$$+++o+o+o+o+++$$$$$$$$  $",
"$$$Xoo$++++o+o+o+o++++$$$$$$$..$",
"$$$XXo$++++o+o+o+o++++$$$$$$$. $",
"$$$$Xo$XXXXoooooooXXXX$$$$$$$..$",
"$$$$$$$XXooo$$$$$XXoooo$$$$$$  $",
"$$$$$$$X++oo$$$$$$Xo++o$$$$$$ .$",
"$$$$$$$$++++$$$$$$+++++$$$$$$  $",
"$$$$$$$$+ooo$$$$$$$Xoo$$$$$$$  $",
"$$$$$$$$$++$$$$$$$$$+o+$$$$$$  $",
"$$$$$$$$$$$$$$$$$$$$$$$$$$$$$$$$"
};
