/* XPM */
static char *_6a073bee6304aab82e7f3e23739337f01Q7A2Eax55ZZJJD[] = {
/* columns rows colors chars-per-pixel */
"16 16 8 1 ",
"  c black",
". c #1C1117",
"X c #30291F",
"o c #3B3328",
"O c #505436",
"+ c #686E46",
"@ c #D1D1C2",
"# c #F0F0DD",
/* pixels */
"                ",
"  ..........    ",
"  .+++++++O.    ",
" ........+O.    ",
" .######.+O.    ",
" ..##..#.....   ",
" ..##..#.ooo.   ",
" .@##@@#.....   ",
" .#..#...+O.    ",
" ......+++O.    ",
"  .OOOOOOOO.    ",
"  .XXXXXXXX.    ",
"  .oooooooo.    ",
"  .oooooooo.    ",
"  .X......X.    ",
"  ...    ...    "
};
