/* XPM */
static char *ee3e9d4e22924882cc5d56609b3c164218Cu1LV3IwTJFDv9[] = {
/* columns rows colors chars-per-pixel */
"16 16 2 1 ",
"  c #301D27",
". c #422835",
/* pixels */
"                ",
"    .     .     ",
".  ... .... ... ",
"........ .... ..",
".. ........ ....",
"................",
"................",
"................",
"................",
"................",
"................",
"................",
"................",
"................",
"................",
"................"
};
