/* XPM */
static char *result[] = {
/* columns rows colors chars-per-pixel */
"16 16 7 1 ",
"  c #1C1C11111717",
". c #30301D1D2727",
"X c #383826262D2D",
"o c #424228283535",
"O c #22223F3F4D4D",
"+ c #52523A3A4242",
"@ c #2B2B63638080",
/* pixels */
"++ ++++++ +++ ++",
"oo oooooo ooo oo",
"oo oo.ooo oo. oo",
"                ",
"++ @@@@@@@@@@@ +",
"ooo O O O O O oo",
"ooo @ @ @ @ @ oo",
"    @ @ @ @ @   ",
"+++ @ @ @ @ @ X+",
"ooo O O O O O oo",
"oo @@@@@@@@@@@ o",
"                ",
"++ +++++++ +++++",
"oo ooooooo ooooo",
"oo ooooo.o o.ooo",
"                "
};
